<svg width="18" height="19" viewBox="0 0 18 19" fill="none" xmlns="http://www.w3.org/2000/svg">
<path d="M7.66068 10.5359C7.66068 10.4258 7.57147 10.3366 7.46143 10.3366H1.59545C0.986403 10.3366 0.492676 9.84289 0.492676 9.23385C0.492676 8.62481 0.986402 8.13108 1.59545 8.13108H7.34857H7.40884C7.54792 8.13108 7.66068 8.01833 7.66068 7.87924V1.55385C7.66068 0.901307 8.18967 0.372314 8.84222 0.372314C9.49476 0.372314 10.0238 0.901307 10.0238 1.55385V7.87924C10.0238 8.01833 10.1365 8.13108 10.2756 8.13108H10.3374H16.089C16.698 8.13108 17.1918 8.62481 17.1918 9.23385C17.1918 9.84289 16.698 10.3366 16.089 10.3366H10.2307H10.2256C10.1141 10.3366 10.0238 10.427 10.0238 10.5385V16.9139C10.0238 17.5664 9.49476 18.0954 8.84222 18.0954C8.18967 18.0954 7.66068 17.5664 7.66068 16.9139V10.5385V10.5359Z" fill="white"/>
</svg>
